<svg width="83" height="17" viewBox="0 0 83 17" fill="none" xmlns="http://www.w3.org/2000/svg">
<path d="M8.20275 10.016H4.01075L3.33875 12H0.47475L4.53875 0.768H7.70675L11.7708 12H8.87475L8.20275 10.016ZM7.49875 7.904L6.10675 3.792L4.73075 7.904H7.49875ZM17.0716 12.112C16.2503 12.112 15.5143 11.9787 14.8636 11.712C14.213 11.4453 13.6903 11.0507 13.2956 10.528C12.9116 10.0053 12.709 9.376 12.6876 8.64H15.5996C15.6423 9.056 15.7863 9.376 16.0316 9.6C16.277 9.81333 16.597 9.92 16.9916 9.92C17.397 9.92 17.717 9.82933 17.9516 9.648C18.1863 9.456 18.3036 9.19467 18.3036 8.864C18.3036 8.58667 18.2076 8.35733 18.0156 8.176C17.8343 7.99467 17.605 7.84533 17.3276 7.728C17.061 7.61067 16.677 7.47733 16.1756 7.328C15.4503 7.104 14.8583 6.88 14.3996 6.656C13.941 6.432 13.5463 6.10133 13.2156 5.664C12.885 5.22667 12.7196 4.656 12.7196 3.952C12.7196 2.90667 13.0983 2.09067 13.8556 1.504C14.613 0.906666 15.5996 0.608 16.8156 0.608C18.053 0.608 19.0503 0.906666 19.8076 1.504C20.565 2.09067 20.9703 2.912 21.0236 3.968H18.0636C18.0423 3.60533 17.909 3.32267 17.6636 3.12C17.4183 2.90667 17.1036 2.8 16.7196 2.8C16.389 2.8 16.1223 2.89067 15.9196 3.072C15.717 3.24267 15.6156 3.49333 15.6156 3.824C15.6156 4.18667 15.7863 4.46933 16.1276 4.672C16.469 4.87467 17.0023 5.09333 17.7276 5.328C18.453 5.57333 19.0396 5.808 19.4876 6.032C19.9463 6.256 20.341 6.58133 20.6716 7.008C21.0023 7.43467 21.1676 7.984 21.1676 8.656C21.1676 9.296 21.0023 9.87733 20.6716 10.4C20.3516 10.9227 19.8823 11.3387 19.2636 11.648C18.645 11.9573 17.9143 12.112 17.0716 12.112ZM24.1314 12.128C23.6514 12.128 23.2567 11.9893 22.9474 11.712C22.6487 11.424 22.4994 11.072 22.4994 10.656C22.4994 10.2293 22.6487 9.872 22.9474 9.584C23.2567 9.296 23.6514 9.152 24.1314 9.152C24.6007 9.152 24.9847 9.296 25.2834 9.584C25.5927 9.872 25.7474 10.2293 25.7474 10.656C25.7474 11.072 25.5927 11.424 25.2834 11.712C24.9847 11.9893 24.6007 12.128 24.1314 12.128ZM40.087 0.768V12H37.351V5.264L34.839 12H32.631L30.103 5.248V12H27.367V0.768H30.599L33.751 8.544L36.871 0.768H40.087ZM46.1185 12.128C45.2438 12.128 44.4545 11.9413 43.7505 11.568C43.0572 11.1947 42.5078 10.6613 42.1025 9.968C41.7078 9.27467 41.5105 8.464 41.5105 7.536C41.5105 6.61867 41.7132 5.81333 42.1185 5.12C42.5238 4.416 43.0785 3.87733 43.7825 3.504C44.4865 3.13067 45.2758 2.944 46.1505 2.944C47.0252 2.944 47.8145 3.13067 48.5185 3.504C49.2225 3.87733 49.7772 4.416 50.1825 5.12C50.5878 5.81333 50.7905 6.61867 50.7905 7.536C50.7905 8.45333 50.5825 9.264 50.1665 9.968C49.7612 10.6613 49.2012 11.1947 48.4865 11.568C47.7825 11.9413 46.9932 12.128 46.1185 12.128ZM46.1185 9.76C46.6412 9.76 47.0838 9.568 47.4465 9.184C47.8198 8.8 48.0065 8.25067 48.0065 7.536C48.0065 6.82133 47.8252 6.272 47.4625 5.888C47.1105 5.504 46.6732 5.312 46.1505 5.312C45.6172 5.312 45.1745 5.504 44.8225 5.888C44.4705 6.26133 44.2945 6.81067 44.2945 7.536C44.2945 8.25067 44.4652 8.8 44.8065 9.184C45.1585 9.568 45.5958 9.76 46.1185 9.76ZM57.682 2.976C58.7273 2.976 59.5593 3.31733 60.178 4C60.8073 4.672 61.122 5.6 61.122 6.784V12H58.402V7.152C58.402 6.55467 58.2473 6.09067 57.938 5.76C57.6287 5.42933 57.2127 5.264 56.69 5.264C56.1673 5.264 55.7513 5.42933 55.442 5.76C55.1327 6.09067 54.978 6.55467 54.978 7.152V12H52.242V3.072H54.978V4.256C55.2553 3.86133 55.6287 3.552 56.098 3.328C56.5673 3.09333 57.0953 2.976 57.682 2.976ZM71.4392 7.392C71.4392 7.648 71.4233 7.91467 71.3913 8.192H65.1993C65.2419 8.74667 65.4179 9.17333 65.7273 9.472C66.0473 9.76 66.4366 9.904 66.8953 9.904C67.5779 9.904 68.0526 9.616 68.3193 9.04H71.2313C71.0819 9.62667 70.8099 10.1547 70.4153 10.624C70.0313 11.0933 69.5459 11.4613 68.9593 11.728C68.3726 11.9947 67.7166 12.128 66.9913 12.128C66.1166 12.128 65.3379 11.9413 64.6553 11.568C63.9726 11.1947 63.4393 10.6613 63.0553 9.968C62.6713 9.27467 62.4793 8.464 62.4793 7.536C62.4793 6.608 62.6659 5.79733 63.0393 5.104C63.4233 4.41067 63.9566 3.87733 64.6393 3.504C65.3219 3.13067 66.1059 2.944 66.9913 2.944C67.8553 2.944 68.6233 3.12533 69.2953 3.488C69.9673 3.85067 70.4899 4.368 70.8633 5.04C71.2473 5.712 71.4392 6.496 71.4392 7.392ZM68.6393 6.672C68.6393 6.20267 68.4793 5.82933 68.1593 5.552C67.8393 5.27467 67.4393 5.136 66.9593 5.136C66.5006 5.136 66.1113 5.26933 65.7913 5.536C65.4819 5.80267 65.2899 6.18133 65.2153 6.672H68.6393ZM82.0026 3.072L76.4026 16.24H73.4586L75.5066 11.696L71.8746 3.072H74.9306L76.9946 8.656L79.0426 3.072H82.0026Z" fill="white"/>
</svg>
